<?xml version="1.0" encoding="UTF-8" standalone="no"?>
<!DOCTYPE svg PUBLIC "-//W3C//DTD SVG 1.1//EN" "http://www.w3.org/Graphics/SVG/1.1/DTD/svg11.dtd">
<svg width="100%" height="100%" viewBox="0 0 513 512" version="1.1" xmlns="http://www.w3.org/2000/svg" xmlns:xlink="http://www.w3.org/1999/xlink" xml:space="preserve" xmlns:serif="http://www.serif.com/" style="fill-rule:evenodd;clip-rule:evenodd;stroke-linejoin:round;stroke-miterlimit:2;">
    <g transform="matrix(1,0,0,1,-4470,-1250)">
        <g transform="matrix(0.82183,0,0,1.58025,3534.72,543.63)">
            <rect id="AY_symbol_whiteB_full" x="1139" y="447" width="623" height="324" style="fill:none;"/>
            <g id="AY_symbol_whiteB_full1" serif:id="AY_symbol_whiteB_full">
                <g id="symbol" transform="matrix(1.77413,0,0,0.922664,-1122.88,47.0979)">
                    <g transform="matrix(2,0,0,2,1350.5,622.334)">
                        <path d="M32.679,-73.27L-32.679,39.936C-40.377,53.269 -30.755,69.936 -15.359,69.936L115.359,69.936C130.755,69.936 140.378,53.269 132.68,39.935L100,-16.667L67.32,-73.27C59.622,-86.603 40.377,-86.603 32.679,-73.27Z" style="fill:white;fill-rule:nonzero;"/>
                    </g>
                    <g transform="matrix(-1.73205,-1,-1,1.73205,1377,566.893)">
                        <rect x="-38.053" y="10.196" width="44" height="12.001"/>
                    </g>
                    <g transform="matrix(-0.99995,-1.73208,-1.73208,0.99995,1556.5,622.607)">
                        <rect x="10.051" y="-5.803" width="12.002" height="43.999"/>
                    </g>
                    <g transform="matrix(-2,0,0,2,2292.39,232.135)">
                        <rect x="414.945" y="221.035" width="12" height="44"/>
                    </g>
                    <g transform="matrix(0,-2,-2,0,1450.5,530.607)">
                        <path d="M-12,-12C-18.627,-12 -24,-6.627 -24,0C-24,6.627 -18.627,12 -12,12C-5.373,12 0,6.627 0,0C0,-6.627 -5.373,-12 -12,-12" style="fill:rgb(0,215,160);fill-rule:nonzero;"/>
                    </g>
                </g>
            </g>
        </g>
    </g>
</svg>
