<svg width="1077" height="362" viewBox="0 0 1077 362" fill="none" xmlns="http://www.w3.org/2000/svg">
<path d="M276.696 98.8488L369.689 152.54L355.045 177.904L262.051 124.213L276.696 98.8488Z" fill="#00D7A0"/>
<path d="M506.088 98.8478L520.733 124.214L427.738 177.902L413.093 152.535L506.088 98.8478Z" fill="#00D7A0"/>
<path d="M376.748 215.501H406.033V322.881H376.748V215.501Z" fill="#00D7A0"/>
<path d="M420.689 69.5651C420.689 85.738 407.576 98.8506 391.403 98.8506C375.231 98.8506 362.118 85.738 362.118 69.5651C362.118 53.3923 375.231 40.2797 391.403 40.2797C407.576 40.2797 420.689 53.3923 420.689 69.5651Z" fill="#00D7A0"/>
<path d="M657.416 137.407C614.354 137.407 579.322 172.439 579.322 215.501C579.322 258.563 614.354 293.596 657.416 293.596C700.478 293.596 735.511 258.563 735.511 215.501C735.511 172.439 700.478 137.407 657.416 137.407ZM657.416 322.881C598.206 322.881 550.036 274.711 550.036 215.501C550.036 156.291 598.206 108.121 657.416 108.121C716.627 108.121 764.796 156.291 764.796 215.501C764.796 274.711 716.627 322.881 657.416 322.881Z" fill="white"/>
<path d="M837.989 205.739C829.904 205.739 823.347 212.294 823.347 220.382V308.238C823.347 316.326 829.904 322.881 837.989 322.881C846.075 322.881 852.632 316.326 852.632 308.238V220.382C852.632 212.294 846.075 205.739 837.989 205.739Z" fill="white"/>
<path d="M1023.47 108.119C1015.39 108.119 1008.83 114.674 1008.83 122.761V210.618C1008.83 218.705 1015.39 225.26 1023.47 225.26C1031.56 225.26 1038.12 218.705 1038.12 210.618V122.761C1038.12 114.674 1031.56 108.119 1023.47 108.119Z" fill="white"/>
<path d="M1033.82 297.873L848.371 112.423C845.721 109.767 842.055 108.12 838.007 108.12C829.919 108.12 823.364 114.678 823.364 122.763C823.364 126.814 825.009 130.477 827.664 133.13L1013.12 318.577C1015.77 321.235 1019.43 322.88 1023.48 322.88C1031.57 322.88 1038.12 316.325 1038.12 308.237C1038.12 304.189 1036.48 300.523 1033.82 297.873Z" fill="white"/>
<path d="M126.468 209.879L65.4562 315.553C61.4123 322.557 52.4583 324.956 45.4542 320.912C38.4501 316.871 36.0511 307.915 40.095 300.91L101.106 195.236C105.148 188.232 114.104 185.833 121.108 189.877C128.112 193.921 130.511 202.875 126.468 209.879Z" fill="white"/>
<path d="M172.537 115.439L279.622 300.913C283.665 307.918 281.266 316.874 274.262 320.918C267.258 324.959 258.302 322.56 254.26 315.556L147.176 130.082C143.132 123.078 145.531 114.124 152.535 110.08C159.539 106.036 168.493 108.435 172.537 115.439Z" fill="white"/>
</svg>
