<svg width="1000" height="283" viewBox="0 0 1000 283" fill="none" xmlns="http://www.w3.org/2000/svg">
<path d="M238.565 58.5697L331.558 112.261L316.914 137.625L223.921 83.9335L238.565 58.5697Z" fill="black"/>
<path d="M467.958 58.5704L482.603 83.937L389.607 137.624L374.963 112.258L467.958 58.5704Z" fill="black"/>
<path d="M338.617 175.223H367.902V282.603H338.617V175.223Z" fill="black"/>
<path d="M382.559 29.2854C382.559 45.4583 369.446 58.5708 353.273 58.5708C337.1 58.5708 323.988 45.4583 323.988 29.2854C323.988 13.1125 337.1 1.90735e-06 353.273 1.90735e-06C369.446 1.90735e-06 382.559 13.1125 382.559 29.2854Z" fill="#00D7A0"/>
<path d="M619.286 97.1267C576.224 97.1267 541.191 132.159 541.191 175.221C541.191 218.283 576.224 253.316 619.286 253.316C662.348 253.316 697.38 218.283 697.38 175.221C697.38 132.159 662.348 97.1267 619.286 97.1267ZM619.286 282.601C560.075 282.601 511.906 234.431 511.906 175.221C511.906 116.011 560.075 67.8413 619.286 67.8413C678.496 67.8413 726.666 116.011 726.666 175.221C726.666 234.431 678.496 282.601 619.286 282.601Z" fill="black"/>
<path d="M799.859 165.46C791.774 165.46 785.216 172.015 785.216 180.103V267.959C785.216 276.047 791.774 282.602 799.859 282.602C807.944 282.602 814.502 276.047 814.502 267.959V180.103C814.502 172.015 807.944 165.46 799.859 165.46Z" fill="black"/>
<path d="M985.342 67.8408C977.257 67.8408 970.7 74.3959 970.7 82.4835V170.34C970.7 178.427 977.257 184.982 985.342 184.982C993.428 184.982 999.985 178.427 999.985 170.34V82.4835C999.985 74.3959 993.428 67.8408 985.342 67.8408Z" fill="black"/>
<path d="M995.691 257.593L810.241 72.1433C807.59 69.4881 803.925 67.8408 799.876 67.8408C791.788 67.8408 785.233 74.3983 785.233 82.4835C785.233 86.5347 786.878 90.1978 789.533 92.8506L974.986 278.298C977.636 280.956 981.302 282.6 985.351 282.6C993.436 282.6 999.994 276.045 999.994 267.958C999.994 263.909 998.349 260.243 995.691 257.593Z" fill="black"/>
<path d="M88.3372 169.6L27.3258 275.274C23.282 282.278 14.3279 284.677 7.32382 280.633C0.319713 276.592 -2.07925 267.636 1.96458 260.632L62.976 154.958C67.0174 147.954 75.9738 145.555 82.9779 149.598C89.9821 153.642 92.381 162.596 88.3372 169.6Z" fill="black"/>
<path d="M134.406 75.1607L241.491 260.635C245.534 267.639 243.136 276.595 236.131 280.639C229.127 284.681 220.171 282.282 216.129 275.278L109.045 89.8034C105.001 82.7993 107.4 73.8453 114.404 69.8015C121.408 65.7577 130.362 68.1566 134.406 75.1607Z" fill="black"/>
</svg>
