<svg width="460" height="159" viewBox="0 0 460 159" fill="none" xmlns="http://www.w3.org/2000/svg">
<path d="M118.106 43.3973L157.899 67.0732L151.718 78.1049L111.925 54.429L118.106 43.3973Z" fill="#242526"/>
<path d="M216.231 43.3968L222.412 54.4297L182.618 78.104L176.437 67.0711L216.231 43.3968Z" fill="#242526"/>
<path d="M160.914 94.6113H173.422V141.755H160.914V94.6113Z" fill="#242526"/>
<path d="M179.682 30.5407C179.682 37.6411 174.081 43.3979 167.173 43.3979C160.266 43.3979 154.665 37.6411 154.665 30.5407C154.665 23.4403 160.266 17.6835 167.173 17.6835C174.081 17.6835 179.682 23.4403 179.682 30.5407Z" fill="#242526"/>
<path d="M280.791 60.325C262.399 60.325 247.436 75.7055 247.436 94.611C247.436 113.516 262.399 128.897 280.791 128.897C299.183 128.897 314.146 113.516 314.146 94.611C314.146 75.7055 299.183 60.325 280.791 60.325ZM280.791 141.754C255.501 141.754 234.927 120.606 234.927 94.611C234.927 68.6158 255.501 47.4678 280.791 47.4678C306.08 47.4678 326.654 68.6158 326.654 94.611C326.654 120.606 306.08 141.754 280.791 141.754Z" fill="#242526"/>
<path d="M357.916 90.3257C354.462 90.3257 351.662 93.2036 351.662 96.7543V135.326C351.662 138.877 354.462 141.755 357.916 141.755C361.369 141.755 364.17 138.877 364.17 135.326V96.7543C364.17 93.2036 361.369 90.3257 357.916 90.3257Z" fill="#242526"/>
<path d="M437.138 47.4668C433.685 47.4668 430.884 50.3447 430.884 53.8954V92.4671C430.884 96.0178 433.685 98.8957 437.138 98.8957C440.592 98.8957 443.392 96.0178 443.392 92.4671V53.8954C443.392 50.3447 440.592 47.4668 437.138 47.4668Z" fill="#242526"/>
<path d="M441.558 130.775L362.35 49.3567C361.218 48.191 359.652 47.4678 357.923 47.4678C354.469 47.4678 351.669 50.3467 351.669 53.8964C351.669 55.675 352.371 57.2832 353.506 58.4479L432.715 139.865C433.847 141.032 435.412 141.754 437.142 141.754C440.595 141.754 443.396 138.876 443.396 135.326C443.396 133.548 442.693 131.939 441.558 130.775Z" fill="#242526"/>
<path d="M54.016 92.143L27.9573 138.537C26.2301 141.612 22.4058 142.666 19.4142 140.89C16.4227 139.116 15.3981 135.184 17.1252 132.109L43.1839 85.7144C44.9101 82.6394 48.7355 81.5862 51.727 83.3615C54.7186 85.1369 55.7432 89.068 54.016 92.143Z" fill="#242526"/>
<path d="M73.6927 50.6812L119.43 132.11C121.157 135.185 120.132 139.118 117.141 140.893C114.149 142.667 110.324 141.614 108.598 138.539L62.8606 57.1098C61.1334 54.0348 62.158 50.1037 65.1496 48.3283C68.1411 46.553 71.9655 47.6062 73.6927 50.6812Z" fill="#242526"/>
</svg>
