<svg width="1619" height="419" viewBox="0 0 1619 419" fill="none" xmlns="http://www.w3.org/2000/svg">
<g clip-path="url(#clip0_233_629)">
<path d="M292.793 139.14L371.414 184.5L359.033 205.929L280.412 160.568L292.793 139.14Z" fill="white"/>
<path d="M486.733 139.141L499.115 160.571L420.492 205.928L408.111 184.498L486.733 139.141Z" fill="white"/>
<path d="M377.381 237.694H402.14V328.412H377.381V237.694Z" fill="white"/>
<path d="M414.531 114.399C414.531 128.062 403.445 139.14 389.772 139.14C376.098 139.14 365.012 128.062 365.012 114.399C365.012 100.736 376.098 89.6577 389.772 89.6577C403.445 89.6577 414.531 100.736 414.531 114.399Z" fill="#00D7A0"/>
<path d="M614.672 171.715C578.265 171.715 548.647 201.312 548.647 237.692C548.647 274.072 578.265 303.669 614.672 303.669C651.078 303.669 680.697 274.072 680.697 237.692C680.697 201.312 651.078 171.715 614.672 171.715ZM614.672 328.41C564.612 328.41 523.887 287.715 523.887 237.692C523.887 187.669 564.612 146.974 614.672 146.974C664.731 146.974 705.456 187.669 705.456 237.692C705.456 287.715 664.731 328.41 614.672 328.41Z" fill="white"/>
<path d="M767.337 229.444C760.501 229.444 754.957 234.982 754.957 241.815V316.039C754.957 322.872 760.501 328.41 767.337 328.41C774.173 328.41 779.717 322.872 779.717 316.039V241.815C779.717 234.982 774.173 229.444 767.337 229.444Z" fill="white"/>
<path d="M924.153 146.972C917.318 146.972 911.774 152.51 911.774 159.343V233.567C911.774 240.4 917.318 245.938 924.153 245.938C930.989 245.938 936.533 240.4 936.533 233.567V159.343C936.533 152.51 930.989 146.972 924.153 146.972Z" fill="white"/>
<path d="M932.903 307.282L776.114 150.607C773.873 148.364 770.774 146.972 767.351 146.972C760.514 146.972 754.972 152.512 754.972 159.343C754.972 162.766 756.362 165.86 758.607 168.102L915.398 324.774C917.638 327.019 920.738 328.409 924.161 328.409C930.996 328.409 936.54 322.871 936.54 316.038C936.54 312.618 935.15 309.521 932.903 307.282Z" fill="white"/>
<path d="M165.783 232.943L114.201 322.22C110.782 328.137 103.212 330.164 97.2903 326.748C91.3687 323.333 89.3405 315.767 92.7593 309.849L144.341 220.572C147.758 214.655 155.33 212.628 161.252 216.045C167.174 219.461 169.202 227.026 165.783 232.943Z" fill="white"/>
<path d="M204.732 153.157L295.267 309.852C298.685 315.769 296.657 323.336 290.736 326.752C284.814 330.167 277.242 328.14 273.825 322.223L183.29 165.527C179.871 159.61 181.9 152.045 187.821 148.629C193.743 145.213 201.313 147.239 204.732 153.157Z" fill="white"/>
</g>
<path d="M1115.9 146.943C1169.45 146.943 1211.14 186.885 1211.14 237.435C1211.14 288.11 1169.45 327.927 1115.9 327.927H1057.36C1055.99 327.927 1055.37 327.303 1055.37 325.805V324.806C1055.37 323.184 1055.99 322.684 1057.36 322.684H1079.83V152.311H1057.36C1055.99 152.311 1055.37 151.686 1055.37 150.064V148.816C1055.37 147.567 1055.99 146.943 1057.36 146.943H1115.9ZM1085.32 322.684H1115.9C1166.33 322.684 1205.65 285.115 1205.65 237.435C1205.65 189.755 1166.33 152.311 1115.9 152.311H1085.32V322.684ZM1299.51 331.047C1264.18 331.047 1237.1 302.464 1237.1 266.018C1237.1 229.821 1264.18 201.488 1299.51 201.488C1334.96 201.488 1362.04 229.821 1362.04 266.018C1362.04 302.464 1334.96 331.047 1299.51 331.047ZM1242.47 266.018C1242.47 299.843 1267.3 326.055 1299.51 326.055C1331.71 326.055 1356.55 299.843 1356.55 266.018C1356.55 232.442 1331.71 206.481 1299.51 206.481C1267.3 206.481 1242.47 232.442 1242.47 266.018ZM1451.28 331.047C1415.96 331.047 1388.88 302.464 1388.88 266.018C1388.88 229.821 1415.96 201.488 1451.28 201.488C1470.76 201.488 1490.23 210.6 1500.46 225.952C1501.21 227.2 1501.21 228.448 1500.09 229.322L1499.34 229.821C1498.21 230.695 1496.97 230.196 1496.09 228.948C1486.61 215.343 1470.38 206.606 1451.16 206.606C1419.08 206.606 1394.24 232.442 1394.24 266.018C1394.24 299.718 1419.08 325.93 1451.28 325.93C1471.63 325.93 1491.35 315.32 1499.09 298.221C1499.84 296.848 1500.96 296.223 1502.21 296.972L1503.21 297.347C1504.33 298.096 1504.71 299.094 1503.83 300.592C1494.84 319.439 1473.75 331.047 1451.28 331.047ZM1575.98 330.922C1555.75 330.922 1538.78 321.062 1529.92 305.085C1529.29 303.837 1529.04 302.839 1530.54 302.09L1531.42 301.591C1532.66 300.842 1533.54 301.341 1534.41 302.714C1541.28 316.319 1558.5 326.179 1576.22 326.179C1594.57 326.179 1613.42 316.319 1613.42 296.598C1613.42 274.755 1594.57 269.887 1575.23 265.019C1554.63 259.902 1535.16 254.41 1535.16 231.319C1535.16 212.721 1551.64 201.363 1572.48 201.363C1590.2 201.363 1605.06 210.35 1613.79 223.206C1614.67 224.329 1614.54 225.453 1613.79 226.326L1612.8 227.2C1612.05 227.949 1610.8 227.575 1609.8 226.576C1601.81 215.467 1587.96 206.106 1572.23 206.106C1554.76 206.106 1540.53 215.343 1540.53 231.194C1540.53 250.79 1558 255.409 1576.97 260.027C1597.94 265.144 1618.66 270.886 1618.66 296.473C1618.66 319.439 1598.82 330.922 1575.98 330.922Z" fill="white"/>
<defs>
<clipPath id="clip0_233_629">
<rect width="845.662" height="239.087" fill="white" transform="translate(91.0984 89.6582)"/>
</clipPath>
</defs>
</svg>
