<svg clip-rule="evenodd" fill-rule="evenodd" stroke-linejoin="round" stroke-miterlimit="2" viewBox="0 0 513 513" xmlns="http://www.w3.org/2000/svg"><g transform="matrix(.82183 0 0 1.58025 -935.28 -706.13)"><path d="m1139 447h623v324h-623z" fill="none"/><g fill="#000"><path d="m-38.053 10.196h44v12.001h-44z" transform="matrix(-3.9015070243 -1.17146957424 -2.2525418958 2.02903962904 1284.9337534 516.084320544)"/><path d="m10.051-5.803h12.002v43.999h-12.002z" transform="matrix(-2.2524177067 -2.0290765356 -3.9015779895 1.17140498776 1689.2579804 581.350803912)"/><path d="m414.945 221.035h12v44h-12z" transform="matrix(-4.5050837916 0 0 2.34293914848 3346.8808633 123.926285952)"/></g><path d="m-12-12c-6.627 0-12 5.373-12 12s5.373 12 12 12 12-5.373 12-12-5.373-12-12-12" fill="#00d7a0" fill-rule="nonzero" transform="matrix(0 -2.34293914848 -4.5050837916 0 1450.495565 473.575344736)"/></g></svg>