<?xml version="1.0" encoding="UTF-8" standalone="no"?>
<!DOCTYPE svg PUBLIC "-//W3C//DTD SVG 1.1//EN" "http://www.w3.org/Graphics/SVG/1.1/DTD/svg11.dtd">
<svg width="100%" height="100%" viewBox="0 0 513 513" version="1.1" xmlns="http://www.w3.org/2000/svg" xmlns:xlink="http://www.w3.org/1999/xlink" xml:space="preserve" xmlns:serif="http://www.serif.com/" style="fill-rule:evenodd;clip-rule:evenodd;stroke-linejoin:round;stroke-miterlimit:2;">
    <g transform="matrix(1,0,0,1,-3833,-2061)">
        <g transform="matrix(0.82183,0,0,1.58025,2897.72,1354.87)">
            <rect id="Y_green" x="1139" y="447" width="623" height="324" style="fill:none;"/>
            <g id="Y_green1" serif:id="Y_green">
                <g id="symbol" transform="matrix(1.77413,0,0,0.922664,-1122.88,47.0979)">
                    <g transform="matrix(-2.19911,-1.26966,-1.26966,2.19911,1357.18,508.296)">
                        <rect x="-38.053" y="10.196" width="44" height="12.001" style="fill:#FFF;"/>
                    </g>
                    <g transform="matrix(-1.26959,-2.19915,-2.19915,1.26959,1585.08,579.033)">
                        <rect x="10.051" y="-5.803" width="12.002" height="43.999" style="fill:#FFF;"/>
                    </g>
                    <g transform="matrix(-2.53932,0,0,2.53932,2519.41,83.268)">
                        <rect x="414.945" y="221.035" width="12" height="44" style="fill:#FFF;"/>
                    </g>
                    <g transform="matrix(0,-2.53932,-2.53932,0,1450.5,462.224)">
                        <path d="M-12,-12C-18.627,-12 -24,-6.627 -24,0C-24,6.627 -18.627,12 -12,12C-5.373,12 0,6.627 0,0C0,-6.627 -5.373,-12 -12,-12" style="fill:rgb(0,215,160);fill-rule:nonzero;"/>
                    </g>
                </g>
            </g>
        </g>
    </g>
</svg>
