<svg width="1760" height="419" viewBox="0 0 1760 419" fill="none" xmlns="http://www.w3.org/2000/svg">
<g clip-path="url(#clip0_233_629)">
<path d="M292.793 139.14L371.414 184.5L359.033 205.929L280.412 160.568L292.793 139.14Z" fill="black"/>
<path d="M486.733 139.141L499.115 160.571L420.492 205.928L408.111 184.498L486.733 139.141Z" fill="black"/>
<path d="M377.381 237.694H402.14V328.412H377.381V237.694Z" fill="black"/>
<path d="M414.531 114.399C414.531 128.062 403.445 139.14 389.772 139.14C376.098 139.14 365.012 128.062 365.012 114.399C365.012 100.736 376.098 89.6577 389.772 89.6577C403.445 89.6577 414.531 100.736 414.531 114.399Z" fill="#00D7A0"/>
<path d="M614.672 171.715C578.265 171.715 548.647 201.312 548.647 237.692C548.647 274.072 578.265 303.669 614.672 303.669C651.078 303.669 680.697 274.072 680.697 237.692C680.697 201.312 651.078 171.715 614.672 171.715ZM614.672 328.41C564.612 328.41 523.887 287.715 523.887 237.692C523.887 187.669 564.612 146.974 614.672 146.974C664.731 146.974 705.456 187.669 705.456 237.692C705.456 287.715 664.731 328.41 614.672 328.41Z" fill="black"/>
<path d="M767.337 229.444C760.501 229.444 754.957 234.982 754.957 241.815V316.039C754.957 322.872 760.501 328.41 767.337 328.41C774.173 328.41 779.717 322.872 779.717 316.039V241.815C779.717 234.982 774.173 229.444 767.337 229.444Z" fill="black"/>
<path d="M924.153 146.972C917.318 146.972 911.774 152.51 911.774 159.343V233.567C911.774 240.4 917.318 245.938 924.153 245.938C930.989 245.938 936.533 240.4 936.533 233.567V159.343C936.533 152.51 930.989 146.972 924.153 146.972Z" fill="black"/>
<path d="M932.903 307.282L776.114 150.607C773.873 148.364 770.774 146.972 767.351 146.972C760.514 146.972 754.972 152.512 754.972 159.343C754.972 162.766 756.362 165.86 758.607 168.102L915.398 324.774C917.638 327.019 920.738 328.409 924.161 328.409C930.996 328.409 936.54 322.871 936.54 316.038C936.54 312.618 935.15 309.521 932.903 307.282Z" fill="black"/>
<path d="M165.783 232.943L114.201 322.22C110.782 328.137 103.212 330.164 97.2903 326.748C91.3687 323.333 89.3405 315.767 92.7593 309.849L144.341 220.572C147.758 214.655 155.33 212.628 161.252 216.045C167.174 219.461 169.202 227.026 165.783 232.943Z" fill="black"/>
<path d="M204.732 153.157L295.267 309.852C298.685 315.769 296.657 323.336 290.736 326.752C284.814 330.167 277.242 328.14 273.825 322.223L183.29 165.527C179.871 159.61 181.9 152.045 187.821 148.629C193.743 145.213 201.313 147.239 204.732 153.157Z" fill="black"/>
</g>
<path d="M1121.39 146.943C1175.44 146.943 1215.88 187.009 1215.88 237.435C1215.88 287.986 1175.44 327.927 1121.39 327.927H1061.73C1058.11 327.927 1056.24 326.055 1056.24 322.684V321.062C1056.24 317.442 1058.11 315.695 1061.73 315.695H1079.83V159.175H1061.73C1058.11 159.175 1056.24 157.428 1056.24 153.808V152.186C1056.24 148.691 1058.11 146.943 1061.73 146.943H1121.39ZM1092.81 315.695H1121.39C1167.45 315.695 1202.9 281.121 1202.9 237.435C1202.9 193.874 1167.45 159.175 1121.39 159.175H1092.81V315.695ZM1334.08 143.823C1387.38 143.823 1427.94 184.513 1427.94 237.435C1427.94 290.357 1387.38 331.047 1334.08 331.047C1280.78 331.047 1240.09 290.357 1240.09 237.435C1240.09 184.513 1280.78 143.823 1334.08 143.823ZM1253.08 237.435C1253.08 283.492 1288.65 318.94 1334.08 318.94C1379.64 318.94 1414.96 283.492 1414.96 237.435C1414.96 191.378 1379.64 155.93 1334.08 155.93C1288.65 155.93 1253.08 191.378 1253.08 237.435ZM1546.27 331.047C1493.85 331.047 1452.28 289.858 1452.28 237.31C1452.28 184.763 1493.85 143.823 1546.27 143.823C1571.23 143.823 1595.95 155.056 1612.55 173.779C1615.17 176.65 1614.67 179.77 1612.05 182.017L1610.55 183.265C1607.93 185.387 1605.68 184.763 1602.69 182.017C1588.46 165.915 1567.49 155.805 1546.27 155.805C1501.33 155.805 1465.26 191.877 1465.26 237.31C1465.26 282.868 1501.33 318.94 1546.27 318.94C1569.11 318.94 1589.95 308.455 1604.06 292.853C1606.8 290.107 1609.3 289.109 1612.05 291.356L1613.54 292.479C1616.54 294.726 1617.04 297.472 1614.67 300.467C1598.07 319.689 1573.85 331.047 1546.27 331.047ZM1701.54 331.047C1677.95 331.047 1653.24 318.94 1640.88 295.599C1639.51 292.604 1640.5 290.357 1643 288.984L1645.75 287.486C1648.37 286.113 1650.62 286.987 1652.49 289.983C1661.85 307.457 1680.82 318.69 1701.54 318.69C1726.13 318.69 1746.1 303.463 1746.1 281.37C1746.1 253.412 1725.75 246.547 1699.79 238.933C1671.21 230.57 1648.74 220.959 1648.74 191.503C1648.74 159.675 1676.33 143.823 1701.29 143.823C1720.39 143.823 1735.74 149.939 1747.35 162.046C1749.84 164.667 1749.72 167.288 1747.72 169.285L1745.6 171.532C1743.35 173.779 1740.98 173.529 1738.24 170.908C1727.75 160.673 1715.64 156.18 1701.29 156.18C1681.44 156.18 1661.72 168.412 1661.72 191.253C1661.72 213.97 1681.07 220.46 1703.91 227.075C1729.25 234.44 1759.21 243.676 1759.21 281.37C1759.21 310.577 1733.37 331.047 1701.54 331.047Z" fill="black"/>
<defs>
<clipPath id="clip0_233_629">
<rect width="845.662" height="239.087" fill="white" transform="translate(91.0984 89.6582)"/>
</clipPath>
</defs>
</svg>
