<svg width="1000" height="283" viewBox="0 0 1000 283" fill="none" xmlns="http://www.w3.org/2000/svg">
<path d="M238.565 58.5691L331.559 112.26L316.914 137.624L223.921 83.9329L238.565 58.5691Z" fill="white"/>
<path d="M467.958 58.568L482.603 83.9346L389.607 137.622L374.963 112.255L467.958 58.568Z" fill="white"/>
<path d="M338.617 175.221H367.903V282.601H338.617V175.221Z" fill="white"/>
<path d="M382.559 29.2854C382.559 45.4582 369.446 58.5708 353.273 58.5708C337.1 58.5708 323.988 45.4582 323.988 29.2854C323.988 13.1125 337.1 -7.24792e-05 353.273 -7.24792e-05C369.446 -7.24792e-05 382.559 13.1125 382.559 29.2854Z" fill="#00D7A0"/>
<path d="M619.286 97.1267C576.224 97.1267 541.191 132.159 541.191 175.221C541.191 218.283 576.224 253.316 619.286 253.316C662.348 253.316 697.38 218.283 697.38 175.221C697.38 132.159 662.348 97.1267 619.286 97.1267ZM619.286 282.601C560.075 282.601 511.906 234.432 511.906 175.221C511.906 116.011 560.075 67.8413 619.286 67.8413C678.496 67.8413 726.666 116.011 726.666 175.221C726.666 234.432 678.496 282.601 619.286 282.601Z" fill="white"/>
<path d="M799.859 165.459C791.774 165.459 785.216 172.015 785.216 180.102V267.959C785.216 276.046 791.774 282.601 799.859 282.601C807.944 282.601 814.502 276.046 814.502 267.959V180.102C814.502 172.015 807.944 165.459 799.859 165.459Z" fill="white"/>
<path d="M985.343 67.8389C977.258 67.8389 970.7 74.3939 970.7 82.4816V170.338C970.7 178.426 977.258 184.981 985.343 184.981C993.428 184.981 999.986 178.426 999.986 170.338V82.4816C999.986 74.3939 993.428 67.8389 985.343 67.8389Z" fill="white"/>
<path d="M995.691 257.593L810.241 72.1428C807.59 69.4876 803.925 67.8403 799.876 67.8403C791.788 67.8403 785.233 74.3978 785.233 82.483C785.233 86.5342 786.878 90.1973 789.533 92.8501L974.986 278.298C977.636 280.955 981.302 282.6 985.351 282.6C993.436 282.6 999.994 276.045 999.994 267.957C999.994 263.909 998.349 260.243 995.691 257.593Z" fill="white"/>
<path d="M88.3372 169.599L27.3258 275.273C23.282 282.278 14.3279 284.676 7.32382 280.633C0.319713 276.591 -2.07925 267.635 1.96458 260.631L62.976 154.957C67.0174 147.953 75.9738 145.554 82.9779 149.597C89.9821 153.641 92.381 162.595 88.3372 169.599Z" fill="white"/>
<path d="M134.406 75.1593L241.491 260.634C245.535 267.638 243.136 276.594 236.132 280.638C229.128 284.679 220.171 282.28 216.13 275.276L109.045 89.802C105.001 82.7979 107.4 73.8439 114.404 69.8C121.408 65.7562 130.363 68.1552 134.406 75.1593Z" fill="white"/>
</svg>
